REM DIRINDEX 1\2\4,1\2\5,1\3\6,1\3\7,1\3\8
REM DIRNAME cjc092,folder01,folder02,folder03,folder04,folder05,folder06,folder07
TITLE ""
FILE "LEVEL2-003-midashigo.mp3" MP3
  TRACK 01 AUDIO
    TITLE "0:"
    INDEX 01 00:00:00
  TRACK 02 AUDIO
    TITLE "6:cjc092_0944"
    INDEX 01 00:00:05
  TRACK 03 AUDIO
    TITLE "0:"
    INDEX 01 00:05:26
  TRACK 04 AUDIO
    TITLE "7:cjc092_0945"
    INDEX 01 00:06:08
  TRACK 05 AUDIO
    TITLE "8:cjc092_0946"
    INDEX 01 00:07:29
  TRACK 06 AUDIO
    TITLE "0:"
    INDEX 01 00:10:70
  TRACK 07 AUDIO
    TITLE "7:cjc092_0947"
    INDEX 01 00:11:29
  TRACK 08 AUDIO
    TITLE "8:cjc092_0948"
    INDEX 01 00:12:61
  TRACK 09 AUDIO
    TITLE "0:"
    INDEX 01 00:14:64
  TRACK 10 AUDIO
    TITLE "7:cjc092_0949"
    INDEX 01 00:15:23
  TRACK 11 AUDIO
    TITLE "8:cjc092_0950"
    INDEX 01 00:16:59
  TRACK 12 AUDIO
    TITLE "0:"
    INDEX 01 00:20:08
  TRACK 13 AUDIO
    TITLE "7:cjc092_0951"
    INDEX 01 00:20:43
  TRACK 14 AUDIO
    TITLE "8:cjc092_0952"
    INDEX 01 00:22:07
  TRACK 15 AUDIO
    TITLE "0:"
    INDEX 01 00:24:24
  TRACK 16 AUDIO
    TITLE "7:cjc092_0953"
    INDEX 01 00:24:61
  TRACK 17 AUDIO
    TITLE "8:cjc092_0954"
    INDEX 01 00:26:46
  TRACK 18 AUDIO
    TITLE "0:"
    INDEX 01 00:30:40
  TRACK 19 AUDIO
    TITLE "7:cjc092_0955"
    INDEX 01 00:30:71
  TRACK 20 AUDIO
    TITLE "8:cjc092_0956"
    INDEX 01 00:32:35
  TRACK 21 AUDIO
    TITLE "0:"
    INDEX 01 00:35:53
  TRACK 22 AUDIO
    TITLE "7:cjc092_0957"
    INDEX 01 00:36:07
  TRACK 23 AUDIO
    TITLE "8:cjc092_0958"
    INDEX 01 00:37:44
  TRACK 24 AUDIO
    TITLE "0:"
    INDEX 01 00:39:45
  TRACK 25 AUDIO
    TITLE "7:cjc092_0959"
    INDEX 01 00:40:07
  TRACK 26 AUDIO
    TITLE "8:cjc092_0960"
    INDEX 01 00:41:36
  TRACK 27 AUDIO
    TITLE "0:"
    INDEX 01 00:45:14
  TRACK 28 AUDIO
    TITLE "7:cjc092_0961"
    INDEX 01 00:45:47
  TRACK 29 AUDIO
    TITLE "8:cjc092_0962"
    INDEX 01 00:47:21
  TRACK 30 AUDIO
    TITLE "0:"
    INDEX 01 00:49:23
  TRACK 31 AUDIO
    TITLE "7:cjc092_0963"
    INDEX 01 00:49:55
  TRACK 32 AUDIO
    TITLE "8:cjc092_0964"
    INDEX 01 00:51:22
  TRACK 33 AUDIO
    TITLE "0:"
    INDEX 01 00:54:11
  TRACK 34 AUDIO
    TITLE "7:cjc092_0965"
    INDEX 01 00:54:48
  TRACK 35 AUDIO
    TITLE "8:cjc092_0966"
    INDEX 01 00:56:20
  TRACK 36 AUDIO
    TITLE "0:"
    INDEX 01 00:57:46
  TRACK 37 AUDIO
    TITLE "7:cjc092_0967"
    INDEX 01 00:58:05
  TRACK 38 AUDIO
    TITLE "8:cjc092_0968"
    INDEX 01 00:59:24
  TRACK 39 AUDIO
    TITLE "0:"
    INDEX 01 01:03:26
  TRACK 40 AUDIO
    TITLE "7:cjc092_0969"
    INDEX 01 01:03:59
  TRACK 41 AUDIO
    TITLE "8:cjc092_0970"
    INDEX 01 01:05:22
  TRACK 42 AUDIO
    TITLE "0:"
    INDEX 01 01:07:63
  TRACK 43 AUDIO
    TITLE "7:cjc092_0971"
    INDEX 01 01:08:21
  TRACK 44 AUDIO
    TITLE "8:cjc092_0972"
    INDEX 01 01:09:48
  TRACK 45 AUDIO
    TITLE "0:"
    INDEX 01 01:13:24
  TRACK 46 AUDIO
    TITLE "7:cjc092_0973"
    INDEX 01 01:13:53
  TRACK 47 AUDIO
    TITLE "8:cjc092_0974"
    INDEX 01 01:15:03
  TRACK 48 AUDIO
    TITLE "0:"
    INDEX 01 01:17:59
  TRACK 49 AUDIO
    TITLE "7:cjc092_0975"
    INDEX 01 01:18:19
  TRACK 50 AUDIO
    TITLE "8:cjc092_0976"
    INDEX 01 01:19:44
  TRACK 51 AUDIO
    TITLE "0:"
    INDEX 01 01:20:69
  TRACK 52 AUDIO
    TITLE "7:cjc092_0977"
    INDEX 01 01:21:27
  TRACK 53 AUDIO
    TITLE "8:cjc092_0978"
    INDEX 01 01:22:56
  TRACK 54 AUDIO
    TITLE "0:"
    INDEX 01 01:25:08
  TRACK 55 AUDIO
    TITLE "7:cjc092_0979"
    INDEX 01 01:25:45
  TRACK 56 AUDIO
    TITLE "8:cjc092_0980"
    INDEX 01 01:27:03
  TRACK 57 AUDIO
    TITLE "0:"
    INDEX 01 01:30:20
  TRACK 58 AUDIO
    TITLE "7:cjc092_0981"
    INDEX 01 01:30:56
  TRACK 59 AUDIO
    TITLE "8:cjc092_0982"
    INDEX 01 01:32:10
  TRACK 60 AUDIO
    TITLE "0:"
    INDEX 01 01:34:30
